<svg width="50" height="100" viewBox="0 0 50 100" fill="none" xmlns="http://www.w3.org/2000/svg">
<path d="M38.4615 9.37401C38.4615 6.88787 37.8537 4.50355 36.7718 2.74558C35.6898 0.987616 34.2224 0 32.6923 0C31.1622 0 29.6948 0.987616 28.6128 2.74558C27.5309 4.50355 26.9231 6.88787 26.9231 9.37401C26.9231 11.8602 27.5309 14.2445 28.6128 16.0024C29.6948 17.7604 31.1622 18.748 32.6923 18.748C34.2224 18.748 35.6898 17.7604 36.7718 16.0024C37.8537 14.2445 38.4615 11.8602 38.4615 9.37401ZM15.1082 34.2737C16.2981 32.3403 17.9207 31.2467 19.6154 31.2467C19.8437 31.2467 20.0721 31.2662 20.2885 31.3053L16.5385 49.6041C15.4207 55.0723 16.7428 61.0873 19.7596 64.1534L30.1202 74.6796L27.0673 92.0215C26.4784 95.3415 27.6683 98.7981 29.7115 99.7551C31.7548 100.712 33.8822 98.7786 34.4712 95.4587L37.9207 75.8514C38.6298 71.8283 37.6082 67.5319 35.4327 65.3251L28.6058 58.3923L32.3197 42.3002L32.9327 44.7023C34.7356 51.6938 38.9303 56.2441 43.5938 56.2441H46.1538C48.2812 56.2441 50 53.4514 50 49.9947C50 46.538 48.2812 43.7454 46.1538 43.7454H43.5938C42.0433 43.7454 40.637 42.2221 40.0481 39.8981L39.2909 36.9687C37.5361 30.114 33.9904 24.8802 29.6154 22.6929L23.762 19.7635C22.4279 19.0995 21.0337 18.748 19.6274 18.748C15.9014 18.748 12.3197 21.1501 9.6875 25.4465L6.89904 29.9578C5.39663 32.3989 5.39663 36.3633 6.89904 38.8045C8.40144 41.2456 10.8413 41.2456 12.3437 38.8045L15.1202 34.2932L15.1082 34.2737ZM10.9615 68.7427H3.84615C1.71875 68.7427 0 71.5354 0 74.9921C0 78.4487 1.71875 81.2414 3.84615 81.2414H12.2115C14.4952 81.2414 16.5625 79.0541 17.488 75.6756L18.8702 70.6175L17.7284 69.4458C15.625 67.3171 14.0625 64.212 13.1731 60.6772L10.9615 68.7427Z" fill="black"/>
</svg>
